<mxfile host="app.diagrams.net" modified="2023-08-02T00:17:58.753Z" agent="Mozilla/5.0 (Windows NT 10.0; Win64; x64; rv:109.0) Gecko/20100101 Firefox/115.0" etag="nKPOoHnOdMGZOvHjjYVP" version="21.6.5" type="github">
  <diagram name="Page-1" id="_1PsRhh52HTPBQcaK1HH">
    <mxGraphModel dx="1050" dy="530" grid="1" gridSize="10" guides="1" tooltips="1" connect="1" arrows="1" fold="1" page="1" pageScale="1" pageWidth="850" pageHeight="1100" math="0" shadow="0">
      <root>
        <mxCell id="0" />
        <mxCell id="1" parent="0" />
        <mxCell id="aaK82o7F8OsEoQv8B6lU-25" style="edgeStyle=orthogonalEdgeStyle;rounded=0;orthogonalLoop=1;jettySize=auto;html=1;exitX=0;exitY=0.5;exitDx=0;exitDy=0;entryX=0.6;entryY=0.017;entryDx=0;entryDy=0;entryPerimeter=0;" edge="1" parent="1" source="aaK82o7F8OsEoQv8B6lU-1" target="aaK82o7F8OsEoQv8B6lU-2">
          <mxGeometry relative="1" as="geometry" />
        </mxCell>
        <mxCell id="aaK82o7F8OsEoQv8B6lU-1" value="Start" style="ellipse;whiteSpace=wrap;html=1;" vertex="1" parent="1">
          <mxGeometry x="350" y="50" width="120" height="80" as="geometry" />
        </mxCell>
        <mxCell id="aaK82o7F8OsEoQv8B6lU-24" style="edgeStyle=orthogonalEdgeStyle;rounded=0;orthogonalLoop=1;jettySize=auto;html=1;exitX=1;exitY=0.5;exitDx=0;exitDy=0;entryX=1;entryY=0;entryDx=0;entryDy=0;" edge="1" parent="1" source="aaK82o7F8OsEoQv8B6lU-2" target="aaK82o7F8OsEoQv8B6lU-3">
          <mxGeometry relative="1" as="geometry" />
        </mxCell>
        <mxCell id="aaK82o7F8OsEoQv8B6lU-2" value="Import randomizer" style="rounded=0;whiteSpace=wrap;html=1;" vertex="1" parent="1">
          <mxGeometry x="280" y="180" width="120" height="60" as="geometry" />
        </mxCell>
        <mxCell id="aaK82o7F8OsEoQv8B6lU-23" style="edgeStyle=orthogonalEdgeStyle;rounded=0;orthogonalLoop=1;jettySize=auto;html=1;exitX=0;exitY=0.5;exitDx=0;exitDy=0;entryX=0.582;entryY=-0.017;entryDx=0;entryDy=0;entryPerimeter=0;" edge="1" parent="1" source="aaK82o7F8OsEoQv8B6lU-3" target="aaK82o7F8OsEoQv8B6lU-5">
          <mxGeometry relative="1" as="geometry" />
        </mxCell>
        <mxCell id="aaK82o7F8OsEoQv8B6lU-3" value="Create answer/endpoint goal" style="rounded=0;whiteSpace=wrap;html=1;" vertex="1" parent="1">
          <mxGeometry x="430" y="260" width="120" height="60" as="geometry" />
        </mxCell>
        <mxCell id="aaK82o7F8OsEoQv8B6lU-22" style="edgeStyle=orthogonalEdgeStyle;rounded=0;orthogonalLoop=1;jettySize=auto;html=1;exitX=0.5;exitY=1;exitDx=0;exitDy=0;entryX=0.218;entryY=0.05;entryDx=0;entryDy=0;entryPerimeter=0;" edge="1" parent="1" source="aaK82o7F8OsEoQv8B6lU-5" target="aaK82o7F8OsEoQv8B6lU-6">
          <mxGeometry relative="1" as="geometry" />
        </mxCell>
        <mxCell id="aaK82o7F8OsEoQv8B6lU-5" value="Display guess count" style="shape=parallelogram;perimeter=parallelogramPerimeter;whiteSpace=wrap;html=1;fixedSize=1;" vertex="1" parent="1">
          <mxGeometry x="255" y="360" width="170" height="60" as="geometry" />
        </mxCell>
        <mxCell id="aaK82o7F8OsEoQv8B6lU-21" style="edgeStyle=orthogonalEdgeStyle;rounded=0;orthogonalLoop=1;jettySize=auto;html=1;exitX=1;exitY=0.5;exitDx=0;exitDy=0;entryX=0.75;entryY=0;entryDx=0;entryDy=0;" edge="1" parent="1" source="aaK82o7F8OsEoQv8B6lU-6" target="aaK82o7F8OsEoQv8B6lU-7">
          <mxGeometry relative="1" as="geometry" />
        </mxCell>
        <mxCell id="aaK82o7F8OsEoQv8B6lU-6" value="Display guess box" style="shape=parallelogram;perimeter=parallelogramPerimeter;whiteSpace=wrap;html=1;fixedSize=1;" vertex="1" parent="1">
          <mxGeometry x="300" y="480" width="170" height="60" as="geometry" />
        </mxCell>
        <mxCell id="aaK82o7F8OsEoQv8B6lU-20" style="edgeStyle=orthogonalEdgeStyle;rounded=0;orthogonalLoop=1;jettySize=auto;html=1;exitX=0;exitY=1;exitDx=0;exitDy=0;entryX=0.5;entryY=0;entryDx=0;entryDy=0;" edge="1" parent="1" source="aaK82o7F8OsEoQv8B6lU-7" target="aaK82o7F8OsEoQv8B6lU-8">
          <mxGeometry relative="1" as="geometry" />
        </mxCell>
        <mxCell id="aaK82o7F8OsEoQv8B6lU-7" value="Display guess counter" style="shape=parallelogram;perimeter=parallelogramPerimeter;whiteSpace=wrap;html=1;fixedSize=1;" vertex="1" parent="1">
          <mxGeometry x="460" y="570" width="240" height="60" as="geometry" />
        </mxCell>
        <mxCell id="aaK82o7F8OsEoQv8B6lU-10" style="edgeStyle=orthogonalEdgeStyle;rounded=0;orthogonalLoop=1;jettySize=auto;html=1;exitX=0;exitY=0.5;exitDx=0;exitDy=0;entryX=0;entryY=0.5;entryDx=0;entryDy=0;" edge="1" parent="1" source="aaK82o7F8OsEoQv8B6lU-8" target="aaK82o7F8OsEoQv8B6lU-9">
          <mxGeometry relative="1" as="geometry">
            <Array as="points">
              <mxPoint x="130" y="690" />
              <mxPoint x="130" y="1110" />
            </Array>
          </mxGeometry>
        </mxCell>
        <mxCell id="aaK82o7F8OsEoQv8B6lU-14" style="edgeStyle=orthogonalEdgeStyle;rounded=0;orthogonalLoop=1;jettySize=auto;html=1;exitX=1;exitY=0.5;exitDx=0;exitDy=0;" edge="1" parent="1" source="aaK82o7F8OsEoQv8B6lU-8" target="aaK82o7F8OsEoQv8B6lU-13">
          <mxGeometry relative="1" as="geometry" />
        </mxCell>
        <mxCell id="aaK82o7F8OsEoQv8B6lU-8" value="Guesscount lower than 10" style="rhombus;whiteSpace=wrap;html=1;" vertex="1" parent="1">
          <mxGeometry x="255" y="650" width="275" height="80" as="geometry" />
        </mxCell>
        <mxCell id="aaK82o7F8OsEoQv8B6lU-9" value="End" style="ellipse;whiteSpace=wrap;html=1;" vertex="1" parent="1">
          <mxGeometry x="332.5" y="1070" width="120" height="80" as="geometry" />
        </mxCell>
        <mxCell id="aaK82o7F8OsEoQv8B6lU-12" style="edgeStyle=orthogonalEdgeStyle;rounded=0;orthogonalLoop=1;jettySize=auto;html=1;entryX=1;entryY=0.5;entryDx=0;entryDy=0;" edge="1" parent="1" source="aaK82o7F8OsEoQv8B6lU-11" target="aaK82o7F8OsEoQv8B6lU-9">
          <mxGeometry relative="1" as="geometry" />
        </mxCell>
        <mxCell id="aaK82o7F8OsEoQv8B6lU-11" value="Correct guess" style="rounded=0;whiteSpace=wrap;html=1;" vertex="1" parent="1">
          <mxGeometry x="550" y="910" width="120" height="60" as="geometry" />
        </mxCell>
        <mxCell id="aaK82o7F8OsEoQv8B6lU-15" style="edgeStyle=orthogonalEdgeStyle;rounded=0;orthogonalLoop=1;jettySize=auto;html=1;entryX=1;entryY=0;entryDx=0;entryDy=0;" edge="1" parent="1" source="aaK82o7F8OsEoQv8B6lU-13" target="aaK82o7F8OsEoQv8B6lU-11">
          <mxGeometry relative="1" as="geometry" />
        </mxCell>
        <mxCell id="aaK82o7F8OsEoQv8B6lU-13" value="Continue guessing" style="rounded=0;whiteSpace=wrap;html=1;" vertex="1" parent="1">
          <mxGeometry x="500" y="780" width="120" height="60" as="geometry" />
        </mxCell>
        <mxCell id="aaK82o7F8OsEoQv8B6lU-16" value="True" style="text;html=1;strokeColor=none;fillColor=none;align=center;verticalAlign=middle;whiteSpace=wrap;rounded=0;" vertex="1" parent="1">
          <mxGeometry x="560" y="710" width="60" height="30" as="geometry" />
        </mxCell>
        <mxCell id="aaK82o7F8OsEoQv8B6lU-17" value="False" style="text;html=1;strokeColor=none;fillColor=none;align=center;verticalAlign=middle;whiteSpace=wrap;rounded=0;" vertex="1" parent="1">
          <mxGeometry x="130" y="840" width="60" height="30" as="geometry" />
        </mxCell>
      </root>
    </mxGraphModel>
  </diagram>
</mxfile>
